<svg width="11" height="8" viewBox="0 0 11 8" fill="none" xmlns="http://www.w3.org/2000/svg">
  <path fill-rule="evenodd" clip-rule="evenodd" d="M9.64613 0.632477C9.77322 0.50712 9.91936 0.444443 10.0846 0.444443C10.2498 0.444443 10.3959 0.50712 10.523 0.632477C10.6374 0.745298 10.6946 0.886322 10.6946 1.05555C10.6946 1.22479 10.6374 1.36581 10.523 1.47863L4.44216 7.51453C4.42945 7.52706 4.41674 7.5396 4.40403 7.55214C4.39132 7.56467 4.37862 7.57721 4.36591 7.58974C4.25154 7.7151 4.10857 7.77778 3.93701 7.77778C3.76545 7.77778 3.62248 7.7151 3.50811 7.58974L0.477224 4.6188C0.36285 4.50598 0.305664 4.36496 0.305664 4.19573C0.305664 4.02649 0.36285 3.88547 0.477224 3.77265C0.604306 3.64729 0.750447 3.58461 0.915654 3.58461C1.08086 3.58461 1.227 3.64729 1.35408 3.77265L3.92748 6.31111L9.64613 0.632477Z" fill="white"/>
</svg>
