<svg width="20" height="18" viewBox="0 0 20 18" fill="none" xmlns="http://www.w3.org/2000/svg">
  <path fill-rule="evenodd" clip-rule="evenodd" d="M7.90448 0.719697C7.14425 0.239897 6.38077 0 5.61404 0C4.87329 0 4.17479 0.116792 3.51852 0.350379C2.86225 0.583966 2.26121 0.965906 1.7154 1.49621C1.1436 2.05177 0.714751 2.67676 0.42885 3.37121C0.142949 4.06566 0 4.77588 0 5.50189C0 6.22791 0.142949 6.93813 0.42885 7.63258C0.714751 8.32702 1.1436 8.95202 1.7154 9.50758C1.87135 9.67172 2.32293 10.1515 3.07018 10.947C3.81742 11.7424 4.60688 12.5884 5.4386 13.4848C6.27031 14.3813 7.02079 15.1862 7.69006 15.8996L8.69396 16.9697C8.87589 17.1465 9.07732 17.279 9.29825 17.3674C9.51917 17.4558 9.75309 17.5 10 17.5C10.2339 17.5 10.4646 17.4558 10.692 17.3674C10.9194 17.279 11.1241 17.1465 11.306 16.9697L12.3879 15.8428C13.1092 15.0915 13.9019 14.2582 14.7661 13.3428C15.6303 12.4274 16.4295 11.5878 17.1637 10.8239C17.898 10.06 18.2716 9.67172 18.2846 9.65909C18.8564 9.10353 19.2852 8.47538 19.5711 7.77462C19.8571 7.07386 20 6.36364 20 5.64394C20 4.92424 19.8571 4.21402 19.5711 3.51326C19.2852 2.8125 18.8564 2.19066 18.2846 1.64773C17.7258 1.09217 17.1215 0.678663 16.4717 0.407197C15.822 0.135731 15.1137 0 14.347 0C13.6062 0 12.8493 0.239897 12.076 0.719697C11.3028 1.1995 10.6108 1.74242 10 2.34848C9.36322 1.74242 8.66472 1.1995 7.90448 0.719697Z" fill="#FF6A6A"/>
</svg>
