<svg width="173" height="32" viewBox="0 0 173 32" fill="none" xmlns="http://www.w3.org/2000/svg">
  <path d="M16.0514 0C11.7943 0 7.71157 1.68571 4.70135 4.68629C1.69113 7.68687 0 11.7565 0 16H0C0 20.2435 1.69113 24.3131 4.70135 27.3137C7.71157 30.3143 11.7943 32 16.0514 32H25.65V25.5678H14.3575V14.3116H25.65V25.5678H32.1028V16C32.1028 11.7565 30.4117 7.68687 27.4015 4.68629C24.3912 1.68571 20.3085 0 16.0514 0V0Z" fill="white"/>
  <path d="M53.5068 25.4553C53.5068 25.5309 53.4617 25.5678 53.3713 25.5678H50.616C49.8029 25.5678 49.1969 25.4365 48.7979 25.1739C48.3989 24.9112 48.1693 24.4872 48.109 23.9019H47.8832C47.581 24.3833 47.0766 24.8185 46.37 25.2076C45.6634 25.5968 44.5794 25.7919 43.1178 25.793C41.5971 25.793 40.4377 25.5116 39.6397 24.9487C38.8417 24.3859 38.4427 23.5417 38.4427 22.4161V22.191C38.4199 21.6298 38.5403 21.0721 38.7928 20.5701C39.0262 20.1498 39.4327 19.8196 40.0124 19.5795C40.592 19.3394 41.3986 19.1818 42.4322 19.1067L46.0683 18.8591C46.5942 18.8458 47.1168 18.774 47.6267 18.6452C47.9284 18.5471 48.0784 18.3783 48.0784 18.1387V18.1162C48.0898 17.9219 48.042 17.7286 47.9412 17.5619C47.8405 17.3951 47.6915 17.2627 47.5138 17.1819C47.1384 16.9943 46.4534 16.9005 45.4585 16.9005C44.4906 16.9005 43.8244 17.0018 43.4598 17.2044C43.2937 17.2805 43.1531 17.4028 43.055 17.5565C42.9568 17.7102 42.9053 17.8889 42.9065 18.0712V18.2738C42.9056 18.3034 42.8935 18.3315 42.8725 18.3525C42.8515 18.3734 42.8232 18.3855 42.7935 18.3863H38.6911C38.6758 18.3885 38.6602 18.387 38.6455 18.3821C38.6308 18.3772 38.6175 18.369 38.6065 18.3581C38.5956 18.3472 38.5873 18.3339 38.5824 18.3193C38.5775 18.3046 38.5761 18.2891 38.5782 18.2738V18.0937C38.5782 16.7 39.124 15.6532 40.2156 14.9532C41.3072 14.2531 43.0576 13.9042 45.4666 13.9063C47.168 13.9063 48.5306 14.0939 49.5545 14.4691C50.5783 14.8444 51.3161 15.4109 51.7678 16.1688C52.2195 16.9268 52.4454 17.8986 52.4454 19.0842V21.9433C52.4238 22.0085 52.4206 22.0784 52.4363 22.1453C52.452 22.2121 52.4859 22.2733 52.5343 22.3222C52.5827 22.3711 52.6436 22.4057 52.7105 22.4223C52.7773 22.4389 52.8475 22.4367 52.9132 22.4161H53.3649C53.4552 22.4161 53.5004 22.4531 53.5004 22.5286L53.5068 25.4553ZM48.0865 20.8852V20.5926C47.9443 20.6987 47.7781 20.7682 47.6025 20.7952C47.3001 20.8507 46.9947 20.8883 46.6878 20.9077L44.4293 21.0878C43.7969 21.1329 43.3791 21.2154 43.1759 21.3355C43.0719 21.4025 42.9884 21.4968 42.9346 21.608C42.8808 21.7192 42.8588 21.843 42.871 21.9658V22.1009C42.8627 22.2431 42.9029 22.384 42.9848 22.5007C43.0668 22.6174 43.1858 22.7031 43.3227 22.7441C43.6249 22.8513 44.1142 22.9049 44.7907 22.9049C45.9199 22.9049 46.748 22.7211 47.275 22.3534C47.5215 22.1946 47.7247 21.9774 47.8663 21.7212C48.0079 21.465 48.0835 21.1777 48.0865 20.8852Z" fill="white"/>
  <path d="M67.2159 25.4553C67.218 25.4706 67.2166 25.4861 67.2117 25.5008C67.2068 25.5154 67.1985 25.5287 67.1876 25.5396C67.1766 25.5505 67.1633 25.5587 67.1486 25.5636C67.1339 25.5685 67.1183 25.57 67.103 25.5678H54.6361C54.6208 25.57 54.6051 25.5685 54.5904 25.5636C54.5758 25.5587 54.5624 25.5505 54.5515 25.5396C54.5405 25.5287 54.5323 25.5154 54.5274 25.5008C54.5225 25.4861 54.521 25.4706 54.5232 25.4553V22.8213C54.5258 22.7781 54.5372 22.736 54.5566 22.6973C54.576 22.6586 54.603 22.6242 54.6361 22.5962L61.7729 17.1707H54.7716C54.7563 17.1728 54.7406 17.1714 54.726 17.1665C54.7113 17.1616 54.6979 17.1533 54.687 17.1424C54.6761 17.1315 54.6678 17.1182 54.6629 17.1036C54.658 17.0889 54.6565 17.0734 54.6587 17.0581V14.244C54.6565 14.2287 54.658 14.2132 54.6629 14.1985C54.6678 14.1839 54.6761 14.1706 54.687 14.1597C54.6979 14.1488 54.7113 14.1406 54.726 14.1357C54.7406 14.1308 54.7563 14.1293 54.7716 14.1315H67.0578C67.0731 14.1293 67.0887 14.1308 67.1034 14.1357C67.1181 14.1406 67.1314 14.1488 67.1424 14.1597C67.1533 14.1706 67.1616 14.1839 67.1665 14.1985C67.1714 14.2132 67.1729 14.2287 67.1707 14.244V16.923C67.1656 16.9741 67.1483 17.0233 67.1202 17.0664C67.0922 17.1095 67.0542 17.1452 67.0094 17.1707L59.9113 22.5286H67.1094C67.1247 22.5265 67.1404 22.5279 67.155 22.5328C67.1697 22.5377 67.1831 22.546 67.194 22.5569C67.205 22.5678 67.2132 22.5811 67.2181 22.5957C67.223 22.6104 67.2245 22.6259 67.2223 22.6412L67.2159 25.4553Z" fill="white"/>
  <path d="M69.8809 9.74151H71.4167C71.432 9.73937 71.4476 9.7408 71.4623 9.7457C71.477 9.7506 71.4903 9.75883 71.5013 9.76974C71.5122 9.78066 71.5205 9.79395 71.5254 9.80858C71.5303 9.82322 71.5317 9.83879 71.5296 9.85407V18.9491H75.5949C75.7916 18.6507 76.0071 18.3649 76.2401 18.0937C76.5488 17.7195 76.8462 17.3818 77.1322 17.0806L79.8198 14.3341C79.8402 14.3054 79.8674 14.2822 79.8989 14.2665C79.9304 14.2508 79.9653 14.2431 80.0005 14.244H81.7396C81.7574 14.2419 81.7754 14.2451 81.7915 14.2531C81.8075 14.2611 81.8209 14.2736 81.8299 14.289C81.8367 14.3044 81.8382 14.3216 81.8341 14.3379C81.83 14.3542 81.8206 14.3687 81.8073 14.3791L76.9274 19.6181L81.896 25.4263C81.9029 25.4314 81.9086 25.4378 81.9129 25.4451C81.9172 25.4524 81.92 25.4605 81.921 25.4689C81.9221 25.4774 81.9214 25.4859 81.9191 25.4941C81.9167 25.5022 81.9127 25.5098 81.9073 25.5164C81.8954 25.5316 81.8799 25.5438 81.8622 25.5516C81.8444 25.5595 81.825 25.5628 81.8057 25.5614H80.0892C80.0546 25.5592 80.0208 25.5501 79.9898 25.5346C79.9587 25.5191 79.9311 25.4976 79.9086 25.4714L77.1306 22.2553C76.2864 21.2647 75.7745 20.6119 75.5949 20.2967H71.5296V25.4553C71.5317 25.4706 71.5303 25.4861 71.5254 25.5008C71.5205 25.5154 71.5122 25.5287 71.5013 25.5396C71.4903 25.5505 71.477 25.5587 71.4623 25.5636C71.4476 25.5685 71.432 25.57 71.4167 25.5678H69.8809C69.8656 25.57 69.8499 25.5685 69.8353 25.5636C69.8206 25.5587 69.8072 25.5505 69.7963 25.5396C69.7854 25.5287 69.7771 25.5154 69.7722 25.5008C69.7673 25.4861 69.7658 25.4706 69.768 25.4553V9.85728C69.7653 9.84176 69.7663 9.82582 69.7709 9.81076C69.7756 9.79571 69.7838 9.78197 69.7948 9.77067C69.8058 9.75937 69.8194 9.75084 69.8343 9.74577C69.8493 9.7407 69.8653 9.73924 69.8809 9.74151Z" fill="white"/>
  <path d="M96.3504 25.4553C96.3504 25.5309 96.2971 25.5678 96.1891 25.5678H95.0372C94.45 25.5678 94.0274 25.4553 93.7725 25.2301C93.5176 25.005 93.3885 24.6448 93.3885 24.1495V23.5642H93.2272C92.9592 23.9058 92.6564 24.2189 92.3238 24.4985C91.9764 24.7912 91.4193 25.0726 90.6525 25.3427C89.8857 25.6129 88.9146 25.7479 87.7391 25.7479C86.2033 25.7479 85.0929 25.4965 84.4078 24.9938C83.7227 24.491 83.3802 23.6918 83.3802 22.5962V22.326C83.3802 20.6011 84.5396 19.6481 86.8583 19.4669L91.2623 19.1292C91.795 19.0992 92.3221 19.0047 92.832 18.8478C92.9957 18.7976 93.1375 18.6934 93.2339 18.5522C93.3304 18.4111 93.3758 18.2414 93.3627 18.0712V18.0486C93.3466 17.191 93.0455 16.5382 92.4593 16.09C91.8732 15.6419 90.8343 15.4168 89.3426 15.4147C86.6324 15.4147 85.2773 16.2187 85.2773 17.8267V18.0744C85.2795 18.0897 85.278 18.1052 85.2731 18.1199C85.2682 18.1345 85.26 18.1478 85.249 18.1587C85.2381 18.1696 85.2247 18.1778 85.21 18.1827C85.1954 18.1876 85.1797 18.1891 85.1644 18.1869H83.6512C83.6359 18.1891 83.6203 18.1876 83.6056 18.1827C83.5909 18.1778 83.5776 18.1696 83.5666 18.1587C83.5557 18.1478 83.5474 18.1345 83.5425 18.1199C83.5376 18.1052 83.5362 18.0897 83.5383 18.0744V17.8267C83.5212 17.3 83.6325 16.7771 83.8626 16.3026C84.0927 15.8282 84.4348 15.4165 84.8595 15.1027C85.7403 14.4273 87.2347 14.0896 89.3426 14.0896C91.4505 14.0896 92.9411 14.4536 93.8144 15.1815C94.6866 15.9105 95.1233 16.9873 95.1243 18.4121L95.1469 23.6125C95.1275 23.7887 95.1759 23.9657 95.2824 24.1077C95.4325 24.2159 95.6179 24.2641 95.8019 24.2428H96.1858C96.2907 24.2428 96.3471 24.2798 96.3471 24.3554L96.3504 25.4553ZM92.861 22.6734C93.2148 22.1856 93.3842 21.7166 93.3692 21.2663H93.3918L93.3692 19.7805C93.2326 19.9562 93.0423 20.0826 92.8271 20.1407C92.4729 20.2342 92.1093 20.2881 91.7431 20.3015L87.6778 20.6231C86.7099 20.6982 86.0511 20.8745 85.7016 21.1522C85.5252 21.2928 85.385 21.4735 85.2927 21.679C85.2003 21.8846 85.1586 22.1092 85.1709 22.3341V22.5126C85.1709 23.218 85.4155 23.7095 85.9049 23.9871C86.3942 24.2648 87.2186 24.4036 88.3779 24.4036C89.5072 24.4036 90.4482 24.2385 91.201 23.9083C91.9539 23.5782 92.5072 23.1665 92.861 22.6734Z" fill="white"/>
  <path d="M101.556 22.2135C101.556 22.8888 101.685 23.3954 101.94 23.7331C102.195 24.0707 102.611 24.2396 103.182 24.2396H105.915C105.93 24.2375 105.946 24.2389 105.961 24.2438C105.975 24.2487 105.989 24.2569 106 24.2678C106.011 24.2787 106.019 24.292 106.024 24.3067C106.029 24.3213 106.03 24.3369 106.028 24.3522V25.4553C106.03 25.4706 106.029 25.4861 106.024 25.5008C106.019 25.5154 106.011 25.5287 106 25.5396C105.989 25.5505 105.975 25.5587 105.961 25.5636C105.946 25.5685 105.93 25.57 105.915 25.5678H102.64C101.722 25.5678 101.023 25.3127 100.543 24.8024C100.063 24.2921 99.8225 23.5642 99.8204 22.6187V15.5723H96.9973C96.982 15.5744 96.9663 15.573 96.9516 15.5681C96.937 15.5632 96.9236 15.5549 96.9127 15.544C96.9017 15.5331 96.8935 15.5198 96.8886 15.5052C96.8836 15.4906 96.8822 15.475 96.8844 15.4597V14.3566C96.8822 14.3413 96.8836 14.3257 96.8886 14.3111C96.8935 14.2965 96.9017 14.2832 96.9127 14.2723C96.9236 14.2613 96.937 14.2531 96.9516 14.2482C96.9663 14.2433 96.982 14.2419 96.9973 14.244H99.8204V11.2563C99.8182 11.241 99.8197 11.2254 99.8246 11.2108C99.8295 11.1962 99.8378 11.1829 99.8487 11.172C99.8597 11.161 99.873 11.1528 99.8877 11.1479C99.9024 11.143 99.918 11.1416 99.9333 11.1437H101.446C101.462 11.1416 101.477 11.143 101.492 11.1479C101.507 11.1528 101.52 11.161 101.531 11.172C101.542 11.1829 101.55 11.1962 101.555 11.2108C101.56 11.2254 101.562 11.241 101.559 11.2563V14.244H105.915C105.93 14.2419 105.946 14.2433 105.961 14.2482C105.975 14.2531 105.989 14.2613 106 14.2723C106.011 14.2832 106.019 14.2965 106.024 14.3111C106.029 14.3257 106.03 14.3413 106.028 14.3566V15.4597C106.03 15.475 106.029 15.4906 106.024 15.5052C106.019 15.5198 106.011 15.5331 106 15.544C105.989 15.5549 105.975 15.5632 105.961 15.5681C105.946 15.573 105.93 15.5744 105.915 15.5723H101.559L101.556 22.2135Z" fill="white"/>
  <path d="M121.024 25.4553C121.024 25.5309 120.971 25.5678 120.863 25.5678H119.711C119.124 25.5678 118.702 25.4553 118.446 25.2301C118.192 25.005 118.062 24.6448 118.062 24.1495V23.5642H117.901C117.634 23.9062 117.331 24.2193 116.998 24.4985C116.651 24.7912 116.094 25.0726 115.327 25.3427C114.559 25.6129 113.587 25.7479 112.413 25.7479C110.877 25.7479 109.767 25.4965 109.082 24.9938C108.397 24.491 108.054 23.6918 108.054 22.5962V22.326C108.054 20.6011 109.214 19.6481 111.532 19.4669L115.936 19.1292C116.469 19.0994 116.996 19.0049 117.506 18.8478C117.67 18.7976 117.811 18.6934 117.908 18.5522C118.004 18.4111 118.05 18.2414 118.037 18.0712V18.0486C118.023 17.191 117.722 16.5382 117.133 16.0901C116.545 15.6419 115.506 15.4168 114.017 15.4147C111.306 15.4147 109.951 16.2187 109.951 17.8267V18.0744C109.953 18.0897 109.952 18.1052 109.947 18.1199C109.942 18.1345 109.934 18.1478 109.923 18.1587C109.912 18.1696 109.899 18.1778 109.884 18.1827C109.869 18.1876 109.854 18.1891 109.838 18.1869H108.325C108.31 18.1891 108.294 18.1876 108.28 18.1827C108.265 18.1778 108.252 18.1696 108.241 18.1587C108.23 18.1478 108.221 18.1345 108.217 18.1199C108.212 18.1052 108.21 18.0897 108.212 18.0744V17.8267C108.195 17.2992 108.307 16.7754 108.537 16.3004C108.768 15.8253 109.111 15.4132 109.537 15.0995C110.418 14.4241 111.912 14.0864 114.02 14.0864C116.128 14.0864 117.618 14.4504 118.492 15.1783C119.366 15.9073 119.803 16.9841 119.802 18.4088L119.824 23.6092C119.805 23.7855 119.853 23.9625 119.96 24.1045C120.11 24.2127 120.295 24.2609 120.479 24.2396H120.863C120.968 24.2396 121.024 24.2766 121.024 24.3522V25.4553ZM117.535 22.6734C117.89 22.1856 118.059 21.7166 118.043 21.2663H118.066L118.043 19.7805C117.907 19.9569 117.717 20.0835 117.501 20.1407C117.147 20.2344 116.783 20.2884 116.417 20.3015L112.352 20.6231C111.384 20.6982 110.725 20.8745 110.376 21.1522C110.199 21.2931 110.059 21.4738 109.967 21.6793C109.875 21.8848 109.833 22.1092 109.845 22.3341V22.5126C109.845 23.218 110.09 23.7095 110.579 23.9871C111.068 24.2648 111.893 24.4036 113.052 24.4036C114.181 24.4036 115.122 24.2385 115.875 23.9083C116.628 23.5782 117.181 23.1665 117.535 22.6734Z" fill="white"/>
  <path d="M123.847 9.85407C123.845 9.83879 123.847 9.82322 123.852 9.80858C123.857 9.79395 123.865 9.78065 123.876 9.76974C123.887 9.75883 123.9 9.7506 123.915 9.7457C123.929 9.7408 123.945 9.73936 123.96 9.74151H125.496C125.512 9.73936 125.527 9.7408 125.542 9.7457C125.557 9.7506 125.57 9.75883 125.581 9.76974C125.592 9.78065 125.6 9.79395 125.605 9.80858C125.61 9.82322 125.611 9.83879 125.609 9.85407V25.4521C125.611 25.4673 125.61 25.4829 125.605 25.4976C125.6 25.5122 125.592 25.5255 125.581 25.5364C125.57 25.5473 125.557 25.5555 125.542 25.5604C125.527 25.5653 125.512 25.5668 125.496 25.5646H123.96C123.945 25.5668 123.929 25.5653 123.915 25.5604C123.9 25.5555 123.887 25.5473 123.876 25.5364C123.865 25.5255 123.857 25.5122 123.852 25.4976C123.847 25.4829 123.845 25.4673 123.847 25.4521V9.85407Z" fill="white"/>
  <path d="M128.464 20.1648V19.7371C128.464 18.0862 128.958 16.7392 129.944 15.6961C130.93 14.653 132.485 14.1315 134.608 14.1315C136.807 14.1315 138.377 14.6455 139.317 15.6736C140.256 16.7016 140.727 18.0561 140.728 19.7371V20.1648C140.728 21.7997 140.254 23.1354 139.305 24.1721C138.357 25.2087 136.791 25.7276 134.608 25.7286C132.485 25.7286 130.93 25.2034 129.944 24.1528C128.958 23.1022 128.464 21.7729 128.464 20.1648ZM138.966 20.0973V19.7371C138.966 18.5214 138.644 17.503 137.999 16.6818C137.353 15.8606 136.224 15.4517 134.611 15.4549C133.075 15.4549 131.961 15.8751 131.268 16.7156C130.572 17.5653 130.203 18.6353 130.229 19.7323V20.1005C130.203 21.1974 130.572 22.2674 131.268 23.1172C131.96 23.9577 133.074 24.3779 134.611 24.3779C136.224 24.3779 137.353 23.9652 137.999 23.1397C138.644 22.3142 138.966 21.3012 138.966 20.1005V20.0973Z" fill="white"/>
  <path d="M155.26 28.8997C155.262 28.915 155.261 28.9306 155.256 28.9452C155.251 28.9598 155.242 28.9731 155.232 28.984C155.221 28.9949 155.207 29.0032 155.193 29.0081C155.178 29.013 155.162 29.0144 155.147 29.0123H153.634C153.618 29.0144 153.603 29.013 153.588 29.0081C153.573 29.0032 153.56 28.9949 153.549 28.984C153.538 28.9731 153.53 28.9598 153.525 28.9452C153.52 28.9306 153.519 28.915 153.521 28.8997V23.2941H153.36C153.329 23.3391 153.171 23.583 152.885 24.0257C152.599 24.4685 152.053 24.8662 151.248 25.2189C150.357 25.5876 149.4 25.7677 148.436 25.7479C146.613 25.7479 145.254 25.2452 144.359 24.2396C143.465 23.234 143.018 21.8543 143.019 20.1005V19.7628C143.019 17.9929 143.467 16.6046 144.363 15.598C145.259 14.5914 146.64 14.0886 148.507 14.0896C149.575 14.0896 150.452 14.2247 151.138 14.4949C151.824 14.765 152.314 15.0464 152.606 15.3391C152.912 15.6467 153.188 15.9821 153.43 16.3409H153.592L153.84 14.3598C153.838 14.3445 153.84 14.3289 153.844 14.3143C153.849 14.2997 153.858 14.2864 153.869 14.2755C153.88 14.2646 153.893 14.2563 153.908 14.2514C153.922 14.2465 153.938 14.2451 153.953 14.2472H155.15C155.165 14.2451 155.181 14.2465 155.196 14.2514C155.21 14.2563 155.224 14.2646 155.235 14.2755C155.246 14.2864 155.254 14.2997 155.259 14.3143C155.264 14.3289 155.265 14.3445 155.263 14.3598L155.26 28.8997ZM153.069 22.236C153.367 21.6178 153.521 20.9407 153.521 20.2549V19.557C153.525 18.8564 153.37 18.1638 153.069 17.5309C152.758 16.8894 152.261 16.356 151.641 16C150.986 15.6087 150.162 15.4136 149.168 15.4147C147.663 15.4147 146.552 15.8049 145.837 16.5853C145.122 17.3658 144.762 18.4303 144.758 19.7789V20.0265C144.758 21.3773 145.115 22.4429 145.831 23.2233C146.546 24.0038 147.656 24.394 149.162 24.394C150.156 24.394 150.98 24.1914 151.635 23.7861C152.254 23.4197 152.753 22.8809 153.069 22.236Z" fill="white"/>
  <path d="M159.269 10.1307V10.3236C159.291 10.7536 159.157 11.1772 158.891 11.5168C158.64 11.8143 158.246 11.9638 157.733 11.9638C157.436 11.9846 157.138 11.9292 156.868 11.803C156.7 11.7093 156.556 11.577 156.449 11.4171H156.352L156.229 11.8673C156.22 11.8882 156.21 11.8995 156.197 11.8995H155.229C155.225 11.9 155.22 11.8995 155.216 11.8981C155.212 11.8967 155.208 11.8943 155.205 11.8912C155.202 11.8881 155.2 11.8844 155.198 11.8802C155.197 11.8761 155.196 11.8717 155.197 11.8673V7.37769C155.196 7.37334 155.197 7.36893 155.198 7.3648C155.2 7.36066 155.202 7.3569 155.205 7.3538C155.208 7.35071 155.212 7.34836 155.216 7.34692C155.22 7.34549 155.225 7.34501 155.229 7.34553H156.41C156.414 7.34501 156.419 7.34549 156.423 7.34692C156.427 7.34836 156.431 7.35071 156.434 7.3538C156.437 7.3569 156.44 7.36066 156.441 7.3648C156.442 7.36893 156.443 7.37334 156.442 7.37769V9.14653H156.507C156.613 8.98606 156.754 8.85185 156.92 8.75417C157.182 8.61921 157.477 8.55702 157.772 8.57407C158.27 8.57407 158.646 8.71343 158.901 8.99216C159.161 9.31319 159.292 9.71886 159.269 10.1307ZM157.833 9.67397C157.753 9.60069 157.659 9.5446 157.556 9.50919C157.453 9.47378 157.344 9.45981 157.236 9.46814C157.13 9.45452 157.022 9.46484 156.92 9.49833C156.818 9.53183 156.725 9.58764 156.647 9.66168C156.57 9.73572 156.51 9.8261 156.473 9.92618C156.435 10.0263 156.42 10.1335 156.429 10.24V10.2915C156.442 10.447 156.497 10.596 156.59 10.7217C156.683 10.8474 156.809 10.9448 156.954 11.0029C157.099 11.0611 157.258 11.0777 157.412 11.0509C157.566 11.024 157.71 10.9548 157.826 10.8511C157.964 10.6973 158.036 10.497 158.03 10.2915V10.2271C158.035 10.1276 158.02 10.028 157.986 9.93417C157.952 9.84034 157.9 9.75409 157.833 9.6804V9.67397Z" fill="white"/>
  <path d="M163.868 10.4523C163.868 10.478 163.858 10.4909 163.837 10.4909H161.108C161.172 10.9079 161.452 11.1158 161.947 11.1148C162.121 11.1271 162.296 11.0891 162.45 11.0054C162.497 10.9785 162.536 10.9402 162.564 10.8941C162.593 10.8481 162.609 10.7956 162.611 10.7417C162.611 10.7374 162.611 10.733 162.613 10.7288C162.614 10.7247 162.616 10.7209 162.62 10.7178C162.623 10.7147 162.626 10.7124 162.631 10.7109C162.635 10.7095 162.639 10.709 162.644 10.7095H163.818C163.822 10.709 163.827 10.7095 163.831 10.7109C163.835 10.7124 163.839 10.7147 163.842 10.7178C163.845 10.7209 163.847 10.7247 163.849 10.7288C163.85 10.733 163.851 10.7374 163.85 10.7417V10.806C163.851 10.976 163.806 11.1432 163.721 11.2906C163.636 11.438 163.514 11.5604 163.366 11.6454C163.044 11.8598 162.542 11.967 161.863 11.967C161.183 11.967 160.675 11.8266 160.34 11.5457C160.174 11.3946 160.045 11.2084 159.961 11.0008C159.877 10.7931 159.841 10.5694 159.856 10.3461V10.2593C159.856 9.70613 160.017 9.29448 160.34 9.00181C160.662 8.70915 161.185 8.57407 161.895 8.57407C162.553 8.57407 163.044 8.6995 163.366 8.95035C163.523 9.07135 163.65 9.22688 163.737 9.40482C163.824 9.58277 163.869 9.77833 163.868 9.97628V10.4587V10.4523ZM162.611 9.95056C162.607 9.87408 162.588 9.79914 162.555 9.73011C162.522 9.66108 162.475 9.59935 162.418 9.54855C162.266 9.4453 162.084 9.39652 161.901 9.41025C161.463 9.41025 161.2 9.59357 161.114 9.95699L162.611 9.95056Z" fill="white"/>
  <path d="M166.225 10.6002C166.216 10.7078 166.243 10.8154 166.302 10.9057C166.338 10.9404 166.38 10.9667 166.427 10.9828C166.474 10.999 166.524 11.0045 166.573 10.999H167.341C167.345 10.9985 167.35 10.999 167.354 11.0004C167.358 11.0018 167.362 11.0042 167.365 11.0073C167.368 11.0104 167.371 11.0141 167.372 11.0183C167.373 11.0224 167.374 11.0268 167.373 11.0312V11.8673C167.364 11.8882 167.354 11.8995 167.341 11.8995H166.109C165.812 11.9158 165.519 11.8257 165.283 11.6454C165.18 11.557 165.1 11.4464 165.047 11.322C164.995 11.1977 164.972 11.0629 164.979 10.9282V9.53246H164.212C164.207 9.53298 164.203 9.5325 164.199 9.53107C164.194 9.52964 164.191 9.52728 164.188 9.52419C164.184 9.52109 164.182 9.51733 164.181 9.51319C164.179 9.50906 164.179 9.50465 164.179 9.5003V8.66412C164.176 8.66111 164.175 8.65707 164.175 8.65286C164.175 8.64865 164.176 8.64461 164.179 8.64161C164.187 8.63569 164.196 8.6323 164.205 8.63196H164.973V7.80864C164.972 7.80429 164.973 7.79988 164.974 7.79575C164.976 7.79161 164.978 7.78785 164.981 7.78476C164.984 7.78166 164.988 7.77931 164.992 7.77787C164.996 7.77644 165.001 7.77596 165.005 7.77648H166.186C166.19 7.77596 166.195 7.77644 166.199 7.77787C166.203 7.77931 166.207 7.78166 166.21 7.78476C166.213 7.78785 166.216 7.79161 166.217 7.79575C166.218 7.79988 166.219 7.80429 166.218 7.80864V8.63196H167.335C167.348 8.63196 167.357 8.64321 167.367 8.66412V9.5003C167.367 9.50465 167.367 9.50906 167.366 9.51319C167.364 9.51733 167.362 9.52109 167.359 9.52419C167.356 9.52728 167.352 9.52964 167.348 9.53107C167.343 9.5325 167.339 9.53298 167.335 9.53246H166.218L166.225 10.6002Z" fill="white"/>
  <path d="M172.108 11.8673C172.108 11.8882 172.095 11.8995 172.069 11.8995H171.282C171.102 11.9121 170.923 11.8731 170.764 11.7869C170.705 11.7458 170.657 11.6916 170.623 11.6285C170.589 11.5654 170.57 11.4952 170.568 11.4235H170.503C170.392 11.5818 170.244 11.7101 170.071 11.7966C169.778 11.9232 169.46 11.9784 169.142 11.9574C168.793 11.98 168.447 11.8958 168.148 11.7162C168.034 11.6344 167.943 11.525 167.883 11.3985C167.823 11.2719 167.797 11.1322 167.806 10.9926V10.9347C167.799 10.7743 167.833 10.6149 167.906 10.4716C167.986 10.3404 168.109 10.2405 168.254 10.1885C168.477 10.1091 168.711 10.0636 168.948 10.0535L169.987 9.98271C170.137 9.97921 170.286 9.95871 170.432 9.9216C170.518 9.89427 170.561 9.84602 170.561 9.77688C170.564 9.72146 170.55 9.66648 170.521 9.61895C170.492 9.57142 170.45 9.53348 170.4 9.50994C170.212 9.4438 170.012 9.41645 169.813 9.42954C169.618 9.4151 169.423 9.44479 169.242 9.51638C169.193 9.5376 169.153 9.57231 169.124 9.61628C169.095 9.66025 169.08 9.71159 169.08 9.76402V9.80904C169.08 9.81327 169.08 9.81748 169.078 9.82137C169.076 9.82526 169.074 9.82873 169.071 9.83155C169.065 9.83761 169.056 9.84108 169.048 9.8412H167.874C167.851 9.8412 167.841 9.83155 167.841 9.80904V9.75758C167.832 9.57997 167.87 9.40302 167.952 9.24519C168.034 9.08736 168.158 8.95444 168.309 8.8603C168.621 8.6609 169.121 8.5612 169.809 8.5612C170.205 8.54856 170.6 8.60293 170.977 8.722C171.237 8.80482 171.461 8.97541 171.608 9.20442C171.746 9.45971 171.813 9.74744 171.802 10.0374V10.8543C171.797 10.8926 171.806 10.9314 171.828 10.9636C171.86 10.9851 171.899 10.9942 171.937 10.9893H172.066C172.092 10.9893 172.105 11.0006 172.105 11.0215L172.108 11.8673ZM170.561 10.5616V10.478C170.52 10.5079 170.473 10.5277 170.422 10.5359C170.336 10.552 170.249 10.5627 170.161 10.568L169.516 10.6195C169.393 10.6199 169.271 10.6439 169.158 10.6902C169.128 10.7093 169.104 10.7363 169.089 10.7681C169.073 10.7998 169.067 10.8352 169.071 10.8703V10.9089C169.068 10.9495 169.08 10.9897 169.103 11.023C169.126 11.0563 169.16 11.0807 169.2 11.0923C169.336 11.131 169.477 11.1473 169.619 11.1405C169.866 11.1575 170.113 11.1016 170.329 10.9797C170.399 10.9343 170.457 10.8725 170.497 10.7996C170.538 10.7267 170.56 10.6449 170.561 10.5616Z" fill="white"/>
</svg>
