<svg width="20" height="20" viewBox="0 0 20 20" fill="none" xmlns="http://www.w3.org/2000/svg">
<path d="M19.6996 18.2491C20.1001 18.6497 20.1001 19.2991 19.6996 19.6996C19.2991 20.1001 18.6497 20.1001 18.2491 19.6996L14.6594 16.1099C14.2588 15.7093 14.2588 15.0599 14.6594 14.6594C15.0599 14.2588 15.7093 14.2588 16.1099 14.6594L19.6996 18.2491ZM8.20513 16.4103C3.67356 16.4103 0 12.7367 0 8.20513C0 3.67356 3.67356 0 8.20513 0C12.7367 0 16.4103 3.67356 16.4103 8.20513C16.4103 12.7367 12.7367 16.4103 8.20513 16.4103ZM8.20513 14.359C11.6038 14.359 14.359 11.6038 14.359 8.20513C14.359 4.80645 11.6038 2.05128 8.20513 2.05128C4.80645 2.05128 2.05128 4.80645 2.05128 8.20513C2.05128 11.6038 4.80645 14.359 8.20513 14.359Z" fill="white"/>
</svg>
