<svg width="22" height="18" viewBox="0 0 22 18" fill="none" xmlns="http://www.w3.org/2000/svg">
  <path d="M21.5 2.77246C20.7271 3.10039 19.8978 3.32279 19.0264 3.42208C19.9161 2.91193 20.5972 2.10275 20.92 1.14152C20.0854 1.61395 19.1642 1.957 18.1826 2.14297C17.3966 1.34007 16.2785 0.839966 15.0384 0.839966C12.6593 0.839966 10.7303 2.68703 10.7303 4.96382C10.7303 5.28673 10.7683 5.60211 10.8418 5.9037C7.26201 5.73153 4.08768 4.08929 1.96314 1.59385C1.59176 2.20201 1.38049 2.91065 1.38049 3.66709C1.38049 5.09827 2.14161 6.36105 3.2964 7.09985C2.5904 7.07725 1.92639 6.89128 1.34508 6.58217V6.63369C1.34508 8.63153 2.83056 10.2989 4.80024 10.6784C4.43936 10.7714 4.05882 10.8229 3.66514 10.8229C3.38696 10.8229 3.11794 10.7965 2.85417 10.7462C3.40267 12.386 4.99315 13.5784 6.87756 13.6111C5.40388 14.7168 3.54573 15.374 1.52749 15.374C1.17976 15.374 0.837236 15.3539 0.5 15.3174C2.40671 16.4898 4.67036 17.1733 7.10327 17.1733C15.028 17.1733 19.3597 10.8882 19.3597 5.43754L19.3453 4.90353C20.1917 4.32549 20.9239 3.59924 21.5 2.77246Z" fill="white"/>
</svg>
